<svg width="32" height="32" viewBox="0 0 32 32" fill="none" xmlns="http://www.w3.org/2000/svg">
<path d="M16.5001 11.1911C15.549 11.1911 14.6192 11.4731 13.8284 12.0016C13.0375 12.53 12.4211 13.281 12.0572 14.1598C11.6932 15.0385 11.5979 16.0054 11.7835 16.9383C11.9691 17.8712 12.4271 18.728 13.0996 19.4006C13.7722 20.0732 14.6291 20.5312 15.5619 20.7167C16.4948 20.9023 17.4617 20.807 18.3404 20.4431C19.2192 20.0791 19.9702 19.4627 20.4987 18.6719C21.0271 17.881 21.3091 16.9512 21.3091 16.0001C21.3077 14.7251 20.8006 13.5028 19.899 12.6012C18.9974 11.6997 17.7751 11.1925 16.5001 11.1911ZM16.5001 19.9348C15.7219 19.9348 14.9612 19.704 14.3141 19.2717C13.6671 18.8393 13.1628 18.2248 12.865 17.5058C12.5672 16.7869 12.4892 15.9957 12.6411 15.2325C12.7929 14.4693 13.1676 13.7682 13.7179 13.2179C14.2682 12.6676 14.9692 12.2929 15.7325 12.1411C16.4957 11.9892 17.2869 12.0672 18.0058 12.365C18.7248 12.6628 19.3393 13.1671 19.7717 13.8141C20.204 14.4612 20.4348 15.2219 20.4348 16.0001C20.4348 17.0436 20.0202 18.0444 19.2823 18.7823C18.5444 19.5202 17.5436 19.9348 16.5001 19.9348ZM25.6733 16.3837C25.6828 16.128 25.6828 15.873 25.6733 15.6187L27.4035 13.4557C27.4464 13.4023 27.4762 13.3396 27.4904 13.2726C27.5047 13.2055 27.503 13.1361 27.4854 13.0699C27.2265 12.1018 26.8402 11.1723 26.3367 10.3058C26.303 10.2462 26.2558 10.1954 26.1988 10.1575C26.1419 10.1195 26.0768 10.0954 26.0088 10.0872L23.2557 9.78118C23.0825 9.5938 22.902 9.41333 22.7147 9.24016L22.4097 6.49137C22.4015 6.42342 22.3774 6.35835 22.3395 6.3014C22.3015 6.24445 22.2507 6.19721 22.1911 6.16349C21.3258 5.66115 20.3978 5.27528 19.4314 5.01588C19.3653 4.99821 19.2959 4.99632 19.2289 5.01037C19.1619 5.02441 19.0991 5.05401 19.0456 5.09676L16.8837 6.82691C16.628 6.81671 16.373 6.81671 16.1187 6.82691L13.9535 5.09676C13.9001 5.05382 13.8374 5.02403 13.7704 5.00979C13.7034 4.99555 13.6339 4.99726 13.5677 5.01479C12.6003 5.27391 11.6716 5.66018 10.8058 6.16349C10.7462 6.19721 10.6954 6.24445 10.6575 6.3014C10.6195 6.35835 10.5954 6.42342 10.5872 6.49137L10.2812 9.24453C10.0938 9.4177 9.91333 9.59818 9.74016 9.78555L6.99137 10.0905C6.92342 10.0987 6.85835 10.1228 6.8014 10.1607C6.74445 10.1987 6.69721 10.2495 6.66348 10.3091C6.16115 11.1745 5.77528 12.1024 5.51588 13.0688C5.49821 13.1349 5.49632 13.2043 5.51037 13.2713C5.52441 13.3384 5.55401 13.4011 5.59676 13.4546L7.32691 15.6165C7.31671 15.8722 7.31671 16.1273 7.32691 16.3816L5.59676 18.5467C5.55382 18.6001 5.52403 18.6628 5.50979 18.7298C5.49555 18.7969 5.49726 18.8663 5.51479 18.9325C5.77391 19.8999 6.16018 20.8286 6.66348 21.6944C6.69721 21.754 6.74445 21.8048 6.8014 21.8428C6.85835 21.8807 6.92342 21.9048 6.99137 21.913L9.74453 22.219C9.91722 22.4059 10.0987 22.5874 10.2855 22.7601L10.5916 25.5143C10.5998 25.5823 10.6239 25.6473 10.6618 25.7043C10.6998 25.7612 10.7506 25.8085 10.8102 25.8422C11.6768 26.3433 12.6058 26.7277 13.5732 26.9854C13.6393 27.0031 13.7087 27.005 13.7757 26.9909C13.8427 26.9769 13.9055 26.9473 13.959 26.9046L16.1209 25.1744C16.3766 25.1839 16.6316 25.1839 16.8859 25.1744L19.0489 26.9046C19.1264 26.9667 19.2228 27.0007 19.3221 27.0007C19.359 27.0006 19.3957 26.9959 19.4314 26.9865C20.3992 26.7271 21.3283 26.3405 22.1944 25.8367C22.254 25.803 22.3048 25.7558 22.3428 25.6988C22.3807 25.6419 22.4048 25.5768 22.413 25.5088L22.719 22.7557C22.9059 22.583 23.0874 22.4016 23.2601 22.2147L26.0143 21.9086C26.0823 21.9004 26.1473 21.8764 26.2043 21.8384C26.2612 21.8004 26.3085 21.7496 26.3422 21.6901C26.8433 20.8234 27.2277 19.8944 27.4854 18.9271C27.5031 18.8609 27.505 18.7915 27.4909 18.7245C27.4769 18.6575 27.4473 18.5947 27.4046 18.5412L25.6733 16.3837ZM25.6919 21.0649L22.9956 21.3643C22.888 21.3763 22.7887 21.4277 22.7169 21.5086C22.4952 21.7587 22.2587 21.9952 22.0086 22.2169C21.9277 22.2887 21.8763 22.388 21.8643 22.4956L21.5649 25.1908C20.8848 25.5667 20.1648 25.8655 19.4183 26.0816L17.3002 24.3864C17.2225 24.3246 17.1261 24.2911 17.0269 24.2913H17.0007C16.6673 24.3121 16.3329 24.3121 15.9995 24.2913C15.8914 24.2848 15.7847 24.3187 15.7001 24.3864L13.583 26.0805C12.8362 25.8653 12.1158 25.5673 11.4353 25.1919L11.1359 22.4956C11.1239 22.388 11.0725 22.2887 10.9916 22.2169C10.7415 21.9952 10.505 21.7587 10.2834 21.5086C10.2115 21.4277 10.1122 21.3763 10.0047 21.3643L7.30942 21.0649C6.93348 20.3848 6.63471 19.6648 6.41866 18.9183L8.11384 16.8002C8.18155 16.7156 8.21544 16.6088 8.20893 16.5007C8.18926 16.1673 8.18926 15.833 8.20893 15.4995C8.21544 15.3914 8.18155 15.2847 8.11384 15.2001L6.41976 13.083C6.63492 12.3362 6.93297 11.6158 7.30833 10.9353L10.0047 10.6359C10.1122 10.6239 10.2115 10.5725 10.2834 10.4916C10.505 10.2415 10.7415 10.005 10.9916 9.78336C11.0725 9.71152 11.1239 9.61221 11.1359 9.50466L11.4353 6.80942C12.1155 6.43348 12.8354 6.13471 13.5819 5.91866L15.7001 7.61384C15.7847 7.68155 15.8914 7.71544 15.9995 7.70893C16.3329 7.68816 16.6673 7.68816 17.0007 7.70893C17.1088 7.71544 17.2156 7.68155 17.3002 7.61384L19.4172 5.91976C20.164 6.13492 20.8844 6.43297 21.5649 6.80833L21.8643 9.50466C21.8763 9.61221 21.9277 9.71152 22.0086 9.78336C22.2587 10.005 22.4952 10.2415 22.7169 10.4916C22.7887 10.5725 22.888 10.6239 22.9956 10.6359L25.6908 10.9353C26.0667 11.6155 26.3655 12.3354 26.5816 13.0819L24.8864 15.2001C24.8187 15.2847 24.7848 15.3914 24.7913 15.4995C24.811 15.833 24.811 16.1673 24.7913 16.5007C24.7848 16.6088 24.8187 16.7156 24.8864 16.8002L26.5805 18.9172C26.3653 19.664 26.0672 20.3844 25.6919 21.0649Z" fill="#F4F1EB" stroke="#F4F1EB" stroke-width="0.75"/>
</svg>
