<svg width="42" height="46" viewBox="0 0 42 46" fill="none" xmlns="http://www.w3.org/2000/svg">
<path d="M14.3178 0.974483C12.9644 1.10727 11.6389 1.43986 10.3553 1.93186C9.07291 2.42405 7.8306 3.07373 6.63098 3.84934L6.5579 3.897L6.63031 3.85145C3.03253 6.18288 -0.262143 9.66448 -3.16799 13.9586L-3.16835 13.9597C-6.0676 18.2605 -8.56388 23.4 -10.3913 29.1019C-11.7837 33.4468 -12.6609 37.7226 -13.0507 41.7688C-13.4404 45.8152 -13.3429 49.6321 -12.7606 53.067L-12.7601 53.0696C-12.172 56.5025 -11.1042 59.5844 -9.41287 62.1298L-9.44578 62.0829L-9.41323 62.1309C-8.56514 63.4024 -7.55303 64.5424 -6.35568 65.4812C-5.15747 66.4212 -3.77451 67.15 -2.25012 67.5866L9.72384 71.024C11.2489 71.4628 12.8277 71.5842 14.3758 71.4326C15.7292 71.2998 17.0535 70.9667 18.3371 70.4749C19.621 69.9819 20.8618 69.333 22.0613 68.5577L22.0632 68.5557C25.6586 66.2236 28.9574 62.7446 31.861 58.4497L31.8749 58.4262C34.7682 54.1291 37.2604 48.9982 39.0861 43.3055L39.0865 43.3044C40.4774 38.9603 41.3545 34.6846 41.7444 30.6383C42.1341 26.5919 42.0354 22.7747 41.4541 19.34L41.4526 19.3373C40.8644 15.9044 39.7951 12.8233 38.1064 10.2774L38.1045 10.2757C37.2588 9.00482 36.2476 7.86631 35.049 6.92721L35.1221 6.98559L35.0493 6.92609C33.8506 5.98713 32.4667 5.25787 30.9414 4.82001L18.9675 1.38261C17.4432 0.945051 15.8655 0.823945 14.3178 0.974483ZM18.3335 65.407C17.8799 65.6569 17.4278 65.8819 16.9837 66.0704C15.9251 66.5159 14.9019 66.7846 13.9277 66.8802C12.9513 66.9752 12.024 66.8972 11.1289 66.6402L5.7007 65.0819C6.77853 64.6589 7.84693 64.1004 8.89682 63.4232C9.14669 63.2595 9.39622 63.0898 9.64654 62.9132L18.3335 65.407ZM24.5392 60.2573C24.2012 60.6369 23.8606 61.0085 23.5143 61.3593C22.7112 62.1773 21.8991 62.9096 21.0889 63.5577L12.0688 60.9683C13.1744 59.9716 14.2559 58.8462 15.3026 57.6057L24.5392 60.2573ZM29.6283 53.1352C28.5511 55.0004 27.4027 56.7112 26.209 58.2498L26.2547 58.1072L16.9985 55.45C17.3671 54.9513 17.73 54.4353 18.0885 53.9059C18.8272 52.8099 19.539 51.6482 20.2235 50.4353L29.6283 53.1352ZM34.1144 43.1996C33.1792 45.9213 32.0753 48.4787 30.8585 50.8469L21.4398 48.143C22.645 45.7559 23.7248 43.1915 24.6532 40.4835L34.1144 43.1996ZM36.712 32.3901C36.3342 35.0957 35.7392 37.9101 34.8831 40.7777L25.4343 38.0652C26.2847 35.2154 26.9051 32.4044 27.3069 29.6902L36.712 32.3901ZM37.1447 23.9311C37.194 24.8768 37.2088 25.8512 37.1864 26.855C37.1653 27.8238 37.1031 28.822 37.0145 29.8367L27.6211 27.1401C27.8224 25.1067 27.8922 23.1381 27.8388 21.2597L37.1447 23.9311ZM35.8914 16.6391C36.3425 18.0186 36.6807 19.5542 36.9011 21.2211L27.669 18.5708C27.5903 17.776 27.49 16.9977 27.3626 16.2456C27.2327 15.4928 27.0775 14.7641 26.9011 14.0582L35.8914 16.6391ZM29.5364 9.20361C30.4314 9.46055 31.2485 9.88322 32.004 10.4767C32.9821 11.2402 33.8586 12.3014 34.5996 13.628L26.0817 11.1827L26.0357 11.3264C25.5588 10.0939 24.9926 8.95992 24.3212 7.95022C24.2523 7.84725 24.1812 7.74718 24.1104 7.64613L29.5364 9.20361ZM20.028 7.03869C21.3482 8.06919 22.4833 9.63807 23.3474 11.6719C24.6457 14.7175 25.3144 18.7864 25.2103 23.4168C25.1102 28.047 24.2453 33.2385 22.5412 38.5558C19.9484 46.6577 15.8916 53.4946 11.5381 57.9211C9.3655 60.1354 7.12484 61.7415 5.00648 62.6321C3.94897 63.0779 2.92572 63.3465 1.95167 63.4422C0.975128 63.5372 0.0489968 63.4595 -0.844885 63.2029C-1.73877 62.9462 -2.55448 62.524 -3.31071 61.9315C-4.63126 60.8983 -5.76716 59.3318 -6.62853 57.2974C-7.92779 54.2503 -8.59767 50.1822 -8.49371 45.5518C-8.3923 40.9219 -7.52599 35.7297 -5.8222 30.4134C-3.23065 22.3111 0.826933 15.4758 5.17934 11.0489C7.35125 8.83311 9.59457 7.22671 11.7098 6.33754C12.7676 5.89073 13.7908 5.62211 14.7657 5.52787C15.7426 5.43176 16.6686 5.50947 17.5626 5.76612C18.4566 6.02277 19.2722 6.44515 20.028 7.03869Z" fill="#F4F1EB"/>
</svg>
