<svg width="16" height="21" viewBox="0 0 16 21" fill="none" xmlns="http://www.w3.org/2000/svg">
<path d="M0.417114 17.3335L0.417114 16.2502H2.1667L2.1667 7.66474C2.1667 6.24919 2.61448 5.00444 3.51003 3.93049C4.40703 2.85727 5.54273 2.1885 6.91711 1.92416V1.33266C6.91711 1.0315 7.0222 0.775829 7.23236 0.565662C7.44253 0.354773 7.69784 0.249329 7.99828 0.249329C8.298 0.249329 8.55403 0.354773 8.76636 0.565662C8.97797 0.775829 9.08378 1.0315 9.08378 1.33266V1.92416C10.4589 2.1885 11.5942 2.85763 12.4898 3.93158C13.3853 5.00625 13.8331 6.25099 13.8331 7.66583V16.2491H15.5838V17.3324L0.417114 17.3335ZM7.9972 20.1664C7.51475 20.1664 7.10309 19.9949 6.7622 19.6518C6.42131 19.3095 6.25086 18.8978 6.25086 18.4168H9.75003C9.75003 18.9007 9.5785 19.3135 9.23545 19.6551C8.89167 19.996 8.47892 20.1664 7.9972 20.1664ZM3.25003 16.2491H12.7509V7.66583C12.7509 6.34922 12.2883 5.22833 11.3631 4.30316C10.4387 3.37872 9.31778 2.9165 8.00045 2.9165C6.68311 2.9165 5.56222 3.37872 4.63778 4.30316C3.71334 5.22833 3.25111 6.34922 3.25111 7.66583L3.25003 16.2491Z" fill="#141414" stroke="#141414" stroke-width="0.5"/>
</svg>
